<svg width="16" height="16" viewBox="0 0 16 16" fill="none" xmlns="http://www.w3.org/2000/svg">
<g clip-path="url(#clip0_32_359)">
<path d="M4 8.00016C3.99978 8.1823 4.03686 8.36239 4.10876 8.52842C4.18066 8.69444 4.28572 8.84259 4.41694 8.96295L10.3781 14.4262C10.5756 14.5989 10.8302 14.6842 11.0873 14.6639C11.3444 14.6436 11.5837 14.5193 11.754 14.3176C11.9244 14.1159 12.0121 13.8528 11.9986 13.5845C11.9851 13.3162 11.8714 13.0641 11.6818 12.8821L6.46903 8.10485C6.45472 8.09178 6.44325 8.07569 6.4354 8.05763C6.42754 8.03958 6.42348 8.01998 6.42348 8.00016C6.42348 7.98034 6.42754 7.96075 6.4354 7.94269C6.44325 7.92464 6.45472 7.90854 6.46903 7.89548L11.6818 3.11827C11.8714 2.93621 11.9851 2.68409 11.9986 2.41583C12.0121 2.14756 11.9244 1.88445 11.754 1.68274C11.5837 1.48103 11.3444 1.35674 11.0873 1.33644C10.8302 1.31614 10.5756 1.40145 10.3781 1.57412L4.41908 7.0357C4.28754 7.15628 4.18213 7.30465 4.10988 7.47094C4.03762 7.63723 4.00017 7.81763 4 8.00016Z" fill="black" fill-opacity="0.87"/>
</g>
<defs>
<clipPath id="clip0_32_359">
<rect width="16" height="16" fill="white"/>
</clipPath>
</defs>
</svg>
